<svg xmlns="http://www.w3.org/2000/svg" viewBox="0 0 800 500">
  <defs>
    <linearGradient id="tbg" x1="0%" y1="0%" x2="0%" y2="100%">
      <stop offset="0%" style="stop-color:#E3F2FD;stop-opacity:1" />
      <stop offset="100%" style="stop-color:#BBDEFB;stop-opacity:1" />
    </linearGradient>
  </defs>
  <rect width="800" height="500" fill="url(#tbg)"/>
  <!-- Light bulb (tips icon) -->
  <circle cx="400" cy="160" r="80" fill="#FFEB3B" stroke="#FFC107" stroke-width="4"/>
  <circle cx="400" cy="160" r="60" fill="#FFF9C4" opacity="0.5"/>
  <rect x="380" y="240" width="40" height="20" rx="5" fill="#FFC107"/>
  <rect x="385" y="260" width="30" height="8" rx="3" fill="#F57F17"/>
  <rect x="385" y="272" width="30" height="8" rx="3" fill="#F57F17"/>
  <!-- Light rays -->
  <line x1="400" y1="50" x2="400" y2="70" stroke="#FFC107" stroke-width="3"/>
  <line x1="310" y1="90" x2="325" y2="105" stroke="#FFC107" stroke-width="3"/>
  <line x1="490" y1="90" x2="475" y2="105" stroke="#FFC107" stroke-width="3"/>
  <line x1="280" y1="160" x2="300" y2="160" stroke="#FFC107" stroke-width="3"/>
  <line x1="520" y1="160" x2="500" y2="160" stroke="#FFC107" stroke-width="3"/>
  <!-- Tip cards -->
  <rect x="80" y="320" width="120" height="140" rx="10" fill="white" stroke="#4CAF50" stroke-width="3"/>
  <circle cx="140" cy="360" r="20" fill="#4CAF50"/>
  <text x="140" y="367" font-family="Arial" font-weight="bold" font-size="18" fill="white" text-anchor="middle">1</text>
  <text x="140" y="400" font-family="Arial" font-size="11" fill="#333" text-anchor="middle">Persiapan</text>
  <text x="140" y="415" font-family="Arial" font-size="11" fill="#333" text-anchor="middle">Matang</text>
  <rect x="230" y="320" width="120" height="140" rx="10" fill="white" stroke="#2196F3" stroke-width="3"/>
  <circle cx="290" cy="360" r="20" fill="#2196F3"/>
  <text x="290" y="367" font-family="Arial" font-weight="bold" font-size="18" fill="white" text-anchor="middle">2</text>
  <text x="290" y="400" font-family="Arial" font-size="11" fill="#333" text-anchor="middle">Pilih</text>
  <text x="290" y="415" font-family="Arial" font-size="11" fill="#333" text-anchor="middle">Vendor</text>
  <rect x="380" y="320" width="120" height="140" rx="10" fill="white" stroke="#FF9800" stroke-width="3"/>
  <circle cx="440" cy="360" r="20" fill="#FF9800"/>
  <text x="440" y="367" font-family="Arial" font-weight="bold" font-size="18" fill="white" text-anchor="middle">3</text>
  <text x="440" y="400" font-family="Arial" font-size="11" fill="#333" text-anchor="middle">Teamwork</text>
  <text x="440" y="415" font-family="Arial" font-size="11" fill="#333" text-anchor="middle">Games</text>
  <rect x="530" y="320" width="120" height="140" rx="10" fill="white" stroke="#9C27B0" stroke-width="3"/>
  <circle cx="590" cy="360" r="20" fill="#9C27B0"/>
  <text x="590" y="367" font-family="Arial" font-weight="bold" font-size="18" fill="white" text-anchor="middle">4</text>
  <text x="590" y="400" font-family="Arial" font-size="11" fill="#333" text-anchor="middle">Safety</text>
  <text x="590" y="415" font-family="Arial" font-size="11" fill="#333" text-anchor="middle">First</text>
  <rect x="680" y="320" width="60" height="140" rx="10" fill="white" stroke="#F44336" stroke-width="3"/>
  <circle cx="710" cy="360" r="15" fill="#F44336"/>
  <text x="710" y="366" font-family="Arial" font-weight="bold" font-size="14" fill="white" text-anchor="middle">5</text>
  <text x="710" y="400" font-family="Arial" font-size="9" fill="#333" text-anchor="middle">Fun!</text>
</svg>
